{
  "accessors": [
    {
      "bufferView": 2,
      "componentType": 5126,
      "count": 1249,
      "max": [
        0.34675291180610657,
        0.34675291180610657,
        0.60985434055328369
      ],
      "min": [
        -0.34675291180610657,
        -0.34675294160842896,
        -4.1517101635690778e-05
      ],
      "type": "VEC3"
    },
    {
      "bufferView": 2,
      "byteOffset": 14988,
      "componentType": 5126,
      "count": 1249,
      "max": [
        0.99986737966537476,
        0.99986732006072998,
        0.99922966957092285
      ],
      "min": [
        -0.99998337030410767,
        -0.99986737966537476,
        -0.99999594688415527
      ],
      "type": "VEC3"
    },
    {
      "bufferView": 3,
      "componentType": 5126,
      "count": 1249,
      "max": [
        0.99998831748962402,
        0.9731440544128418,
        0.99927997589111328,
        1
      ],
      "min": [
        -0.99999850988388062,
        -0.97332680225372314,
        -0.99997085332870483,
        1
      ],
      "type": "VEC4"
    },
    {
      "bufferView": 1,
      "componentType": 5126,
      "count": 1249,
      "max": [
        0.90390300750732422,
        0.75942730903625488
      ],
      "min": [
        0.0030000000260770321,
        0.0030000000260770321
      ],
      "type": "VEC2"
    },
    {
      "bufferView": 0,
      "componentType": 5125,
      "count": 6426,
      "max": [
        1248
      ],
      "min": [
        0
      ],
      "type": "SCALAR"
    },
    {
      "bufferView": 2,
      "byteOffset": 29976,
      "componentType": 5126,
      "count": 1723,
      "max": [
        0.4254271388053894,
        0.34675291180610657,
        1.2918237447738647
      ],
      "min": [
        -0.34675291180610657,
        -0.34675294160842896,
        -4.1517101635690778e-05
      ],
      "type": "VEC3"
    },
    {
      "bufferView": 2,
      "byteOffset": 50652,
      "componentType": 5126,
      "count": 1723,
      "max": [
        0.99986737966537476,
        0.99986732006072998,
        0.99922966957092285
      ],
      "min": [
        -0.99998337030410767,
        -0.99986737966537476,
        -0.99999594688415527
      ],
      "type": "VEC3"
    },
    {
      "bufferView": 3,
      "byteOffset": 19984,
      "componentType": 5126,
      "count": 1723,
      "max": [
        0.99998831748962402,
        0.9731440544128418,
        0.99927997589111328,
        1
      ],
      "min": [
        -0.99999850988388062,
        -0.97332680225372314,
        -0.99997085332870483,
        1
      ],
      "type": "VEC4"
    },
    {
      "bufferView": 1,
      "byteOffset": 9992,
      "componentType": 5126,
      "count": 1723,
      "max": [
        0.99699997901916504,
        0.93425959348678589
      ],
      "min": [
        0.0030000000260770321,
        0.0030000000260770321
      ],
      "type": "VEC2"
    },
    {
      "bufferView": 0,
      "byteOffset": 25704,
      "componentType": 5125,
      "count": 8166,
      "max": [
        1722
      ],
      "min": [
        0
      ],
      "type": "SCALAR"
    }
  ],
  "asset": {
    "extras": {
      "author": "soidev (https://sketchfab.com/soidev)",
      "license": "CC-BY-4.0 (http://creativecommons.org/licenses/by/4.0/)",
      "source": "https://sketchfab.com/models/05e815d0f2f64647b646e9b71f8ec9ed",
      "title": "Dining Chair"
    },
    "generator": "Sketchfab-3.19.4",
    "version": "2.0"
  },
  "bufferViews": [
    {
      "buffer": 0,
      "byteLength": 58368,
      "byteOffset": 0,
      "name": "floatBufferViews",
      "target": 34963
    },
    {
      "buffer": 0,
      "byteLength": 23776,
      "byteOffset": 58368,
      "byteStride": 8,
      "name": "floatBufferViews",
      "target": 34962
    },
    {
      "buffer": 0,
      "byteLength": 71328,
      "byteOffset": 82144,
      "byteStride": 12,
      "name": "floatBufferViews",
      "target": 34962
    },
    {
      "buffer": 0,
      "byteLength": 47552,
      "byteOffset": 153472,
      "byteStride": 16,
      "name": "floatBufferViews",
      "target": 34962
    }
  ],
  "buffers": [
    {
      "byteLength": 201024,
      "uri": "scene.bin"
    }
  ],
  "images": [
    {
      "uri": "textures/DiningChair_baseColor.png"
    },
    {
      "uri": "textures/DiningChair_normal.png"
    },
    {
      "uri": "textures/DiningChair_metallicRoughness.png"
    }
  ],
  "materials": [
    {
      "doubleSided": true,
      "name": "DiningChair",
      "normalTexture": {
        "index": 1,
        "scale": 1,
        "texCoord": 0
      },
      "occlusionTexture": {
        "index": 2,
        "strength": 1,
        "texCoord": 0
      },
      "pbrMetallicRoughness": {
        "baseColorFactor": [
          1,
          1,
          1,
          1
        ],
        "baseColorTexture": {
          "index": 0,
          "texCoord": 0
        },
        "metallicFactor": 1,
        "metallicRoughnessTexture": {
          "index": 2,
          "texCoord": 0
        },
        "roughnessFactor": 1
      }
    }
  ],
  "meshes": [
    {
      "name": "DiningxStool_DiningChair_0",
      "primitives": [
        {
          "attributes": {
            "NORMAL": 1,
            "POSITION": 0,
            "TANGENT": 2,
            "TEXCOORD_0": 3
          },
          "indices": 4,
          "material": 0,
          "mode": 4
        }
      ]
    },
    {
      "name": "DiningxChair_DiningChair_0",
      "primitives": [
        {
          "attributes": {
            "NORMAL": 6,
            "POSITION": 5,
            "TANGENT": 7,
            "TEXCOORD_0": 8
          },
          "indices": 9,
          "material": 0,
          "mode": 4
        }
      ]
    }
  ],
  "nodes": [
    {
      "children": [
        1
      ],
      "name": "RootNode (gltf orientation matrix)",
      "rotation": [
        -0.70710678118654746,
        -0,
        -0,
        0.70710678118654757
      ]
    },
    {
      "children": [
        2
      ],
      "name": "RootNode (model correction matrix)"
    },
    {
      "children": [
        3
      ],
      "matrix": [
        1,
        0,
        0,
        0,
        0,
        0,
        1,
        0,
        0,
        -1,
        0,
        0,
        0,
        0,
        0,
        1
      ],
      "name": "DiningChair.fbx"
    },
    {
      "children": [
        4,
        6
      ],
      "name": "RootNode"
    },
    {
      "children": [
        5
      ],
      "matrix": [
        97.948633294432142,
        3.8912126992807217e-07,
        -20.151060412615006,
        0,
        -20.15106041261409,
        -2.829305116858194e-05,
        -97.948633294428248,
        0,
        -6.0824887987420695e-06,
        99.999999999996007,
        -2.7634244870178293e-05,
        0,
        -52.925758361816406,
        0,
        -69.015190124511719,
        1
      ],
      "name": "DiningxStool"
    },
    {
      "mesh": 0,
      "name": "DiningxStool_DiningChair_0"
    },
    {
      "children": [
        7
      ],
      "matrix": [
        100,
        0,
        0,
        0,
        0,
        -1.6292067939183141e-05,
        -99.999999999998678,
        0,
        0,
        99.999999999998678,
        -1.6292067939183141e-05,
        0,
        0,
        0,
        0,
        1
      ],
      "name": "DiningxChair"
    },
    {
      "mesh": 1,
      "name": "DiningxChair_DiningChair_0"
    }
  ],
  "samplers": [
    {
      "magFilter": 9729,
      "minFilter": 9987,
      "wrapS": 10497,
      "wrapT": 10497
    }
  ],
  "scene": 0,
  "scenes": [
    {
      "name": "OSG_Scene",
      "nodes": [
        0
      ]
    }
  ],
  "textures": [
    {
      "sampler": 0,
      "source": 0
    },
    {
      "sampler": 0,
      "source": 1
    },
    {
      "sampler": 0,
      "source": 2
    }
  ]
}

